<?xml version="1.0" encoding="UTF-8"?>
<svg id="bluesky" xmlns="http://www.w3.org/2000/svg" viewBox="0 0 32 32">
  <path d="M9.2,6.83c2.75,2.07,5.71,6.27,6.8,8.53v5.96c0-.13-.05.02-.15.33-.57,1.67-2.78,8.19-7.85,2.98-2.67-2.74-1.43-5.49,3.42-6.32-2.78.47-5.9-.31-6.75-3.38-.25-.88-.67-6.33-.67-7.06,0-3.68,3.22-2.52,5.2-1.03ZM22.8,6.83c-2.75,2.07-5.71,6.27-6.8,8.53v5.96c0-.13.05.02.15.33.57,1.67,2.78,8.19,7.85,2.98,2.67-2.74,1.43-5.49-3.42-6.32,2.78.47,5.9-.31,6.75-3.38.25-.88.67-6.33.67-7.06,0-3.68-3.22-2.52-5.2-1.03Z" fill="currentColor"/>
</svg>
