<?xml version="1.0" encoding="UTF-8"?>
<svg id="instagram" viewBox="0 0 32 32" xmlns="http://www.w3.org/2000/svg">
<path fill-rule="evenodd" clip-rule="evenodd" d="M16 6.66667C19.0398 6.66667 19.3999 6.67827 20.6003 6.73303C21.3223 6.74159 22.0373 6.87419 22.7143 7.12503C23.7072 7.50803 24.492 8.2928 24.875 9.28567C25.1258 9.96265 25.2584 10.6777 25.267 11.3996C25.3217 12.6001 25.3333 12.9602 25.3333 16C25.3333 19.0398 25.3217 19.3999 25.267 20.6003C25.2584 21.3223 25.1258 22.0373 24.875 22.7143C24.492 23.7072 23.7072 24.492 22.7143 24.875C22.0373 25.1258 21.3223 25.2584 20.6004 25.267C19.4 25.3217 19.04 25.3333 16 25.3333C12.96 25.3333 12.6 25.3217 11.3997 25.267C10.6777 25.2584 9.96267 25.1258 9.28568 24.875C8.29281 24.492 7.50804 23.7072 7.12504 22.7143C6.8742 22.0374 6.7416 21.3223 6.73304 20.6004C6.67827 19.3999 6.66667 19.0398 6.66667 16C6.66667 12.9602 6.67827 12.6001 6.73303 11.3997C6.74159 10.6777 6.87419 9.96267 7.12503 9.28568C7.50803 8.29281 8.2928 7.50804 9.28568 7.12504C9.96266 6.8742 10.6777 6.7416 11.3996 6.73304C12.6001 6.67827 12.9602 6.66667 16 6.66667ZM16 4C12.741 4 12.3323 4.0138 11.0524 4.0722C10.0569 4.09214 9.07198 4.28074 8.13953 4.62999C6.52764 5.25339 5.25339 6.52764 4.62999 8.13953C4.28074 9.07198 4.09214 10.0569 4.0722 11.0524C4.0138 12.3323 4 12.741 4 16C4 19.259 4.0138 19.6677 4.0722 20.9476C4.09214 21.9431 4.28074 22.928 4.62999 23.8605C5.25339 25.4724 6.52764 26.7466 8.13953 27.37C9.07198 27.7193 10.0569 27.9079 11.0524 27.9278C12.3323 27.9862 12.741 28 16 28C19.259 28 19.6677 27.9862 20.9476 27.9278C21.9431 27.9079 22.928 27.7193 23.8605 27.37C25.4724 26.7466 26.7466 25.4724 27.37 23.8605C27.7193 22.928 27.9079 21.9431 27.9278 20.9476C27.9862 19.6677 28 19.259 28 16C28 12.741 27.9862 12.3323 27.9278 11.0524C27.9079 10.0569 27.7193 9.07198 27.37 8.13953C26.7466 6.52764 25.4724 5.25339 23.8605 4.62999C22.928 4.28074 21.9431 4.09214 20.9476 4.0722C19.6677 4.0138 19.259 4 16 4ZM16 10.6667C13.0545 10.6667 10.6667 13.0545 10.6667 16C10.6667 18.9455 13.0545 21.3333 16 21.3333C18.9455 21.3333 21.3333 18.9455 21.3333 16C21.3333 14.5855 20.7714 13.229 19.7712 12.2288C18.771 11.2286 17.4145 10.6667 16 10.6667ZM16 18.6667C14.5272 18.6667 13.3333 17.4728 13.3333 16C13.3333 14.5272 14.5272 13.3333 16 13.3333C17.4728 13.3333 18.6667 14.5272 18.6667 16C18.6667 17.4728 17.4728 18.6667 16 18.6667ZM22 8.66667C21.2636 8.66667 20.6667 9.26362 20.6667 10C20.6667 10.7364 21.2636 11.3333 22 11.3333C22.7364 11.3333 23.3333 10.7364 23.3333 10C23.3333 9.26362 22.7364 8.66667 22 8.66667Z" fill="currentColor"/>
</svg>
