<?xml version="1.0" encoding="UTF-8"?>
<svg id="spotify-alt" xmlns="http://www.w3.org/2000/svg" viewBox="0 0 64 64">
  <rect width="64" height="64" rx="11" ry="11" fill="#1ed760"/>
  <path d="M32,8c-13.25,0-24,10.75-24,24s10.75,24,24,24,24-10.74,24-24-10.74-24-24-24ZM43.01,42.62c-.43.7-1.35.93-2.06.5-5.64-3.44-12.73-4.22-21.08-2.31-.81.18-1.61-.32-1.79-1.13-.18-.81.32-1.61,1.13-1.79,9.14-2.09,16.98-1.19,23.31,2.68.7.43.93,1.35.5,2.06ZM45.94,36.08c-.54.88-1.69,1.16-2.57.62-6.45-3.97-16.29-5.11-23.92-2.8-.99.3-2.03-.26-2.34-1.25-.3-.99.26-2.03,1.25-2.33,8.72-2.64,19.55-1.36,26.96,3.19.88.54,1.16,1.69.62,2.57ZM46.2,29.27c-7.74-4.59-20.5-5.02-27.88-2.78-1.19.36-2.44-.31-2.8-1.5-.36-1.19.31-2.44,1.5-2.8,8.48-2.57,22.57-2.08,31.48,3.21,1.07.63,1.42,2.01.79,3.08-.63,1.07-2.01,1.42-3.08.78Z" fill="#ffffff"/>
</svg>