<?xml version="1.0" encoding="UTF-8"?>
<svg id="youtube" viewBox="0 0 32 32" xmlns="http://www.w3.org/2000/svg">
  <path d="M25.8666 24.9565C25.8666 26.5718 24.613 27.8909 23.045 27.9253C18.5269 28.0249 14.0068 28.0249 9.48783 27.9253C7.92027 27.8909 6.66663 26.5718 6.66663 24.9565V17.6922C6.66663 16.0778 7.92027 14.7582 9.48783 14.7242C14.0068 14.6247 18.5269 14.6247 23.045 14.7242C24.6134 14.7587 25.8666 16.0778 25.8666 17.6922V24.9565ZM14.3235 23.9543C14.3235 23.995 14.3235 24.046 14.3017 24.0746C14.153 24.2721 13.9765 24.4363 13.7444 24.5238C13.5429 24.5998 13.3822 24.5073 13.3398 24.2915C13.3229 24.2065 13.3221 24.1169 13.3221 24.0294C13.3213 22.4236 13.3173 19.1317 13.3149 19.0914H12.164C12.164 19.1358 12.1624 23.722 12.1656 24.5886C12.1664 24.8229 12.1902 25.0561 12.2853 25.2738C12.3872 25.5099 12.5561 25.6592 12.8079 25.7019C12.9925 25.7347 13.173 25.7135 13.3483 25.6517C13.7078 25.5244 13.989 25.2842 14.2377 24.9955C14.2594 24.9702 14.2828 24.9453 14.3247 24.8993V25.6185H15.4784V19.081L14.3239 19.0839V23.9539L14.3235 23.9543ZM19.7781 19.6021C19.5347 19.0682 19.0234 18.9271 18.5797 19.0412C18.3109 19.1113 18.0929 19.2706 17.914 19.4768C17.8547 19.5461 17.7895 19.68 17.7895 19.68V16.7668H16.6337V25.6177H17.7895V25.1212C17.7895 25.1212 17.8717 25.2108 17.9011 25.2435C18.1662 25.5397 18.4882 25.7023 18.8851 25.7061C19.3731 25.711 19.7128 25.468 19.8672 24.9901C19.9385 24.7682 19.9619 24.5392 19.9627 24.3077C19.9643 23.0707 19.9643 21.8333 19.9619 20.5964C19.9619 20.2541 19.9216 19.9177 19.7781 19.6025V19.6021ZM18.7723 24.1596C18.7723 24.226 18.7647 24.2928 18.7509 24.3575C18.6978 24.6168 18.5063 24.7333 18.2347 24.6757C18.0699 24.6408 17.9414 24.5433 17.831 24.4201C17.8261 24.4143 17.7935 24.3691 17.7935 24.3691V24.2725L17.7907 20.3425C17.7907 20.3425 17.8152 20.2695 17.8701 20.221C18.0059 20.0973 18.1558 20.0194 18.3431 20.038C18.5031 20.0542 18.6305 20.1297 18.6897 20.2819C18.7344 20.3977 18.7695 20.5267 18.7703 20.6503C18.7759 21.8197 18.7739 22.989 18.7723 24.1592V24.1596ZM12.1668 16.7672H8.16286V18.0357H9.51201V25.6181H10.8148V18.0328H12.1668V16.7672ZM23.0805 23.2972V24.1368C23.0805 24.4301 22.85 24.6678 22.5655 24.6678C22.281 24.6678 22.0497 24.4305 22.0497 24.1368V22.5037H24.2632C24.2632 22.5037 24.2761 21.3642 24.2668 20.8469C24.2632 20.6262 24.2471 20.4026 24.2032 20.1874C24.0887 19.6282 23.7966 19.2063 23.2497 19.0217C23.0893 18.967 22.9165 18.9388 22.7476 18.928C22.1851 18.8906 21.693 19.0562 21.3082 19.4996C20.9709 19.8879 20.8533 20.3554 20.8529 20.8618C20.8508 21.8309 20.8464 22.8011 20.8557 23.7701C20.8585 24.0169 20.8855 24.2687 20.9399 24.5093C21.0572 25.0258 21.3312 25.431 21.8143 25.6555C22.1673 25.8201 22.5401 25.828 22.9165 25.7712C23.5233 25.6795 23.9372 25.3443 24.1375 24.7408C24.2882 24.2886 24.2705 23.2976 24.2705 23.2976H23.0813L23.0805 23.2972ZM22.0497 20.574C22.0497 20.2811 22.2802 20.043 22.5655 20.043C22.8508 20.043 23.0805 20.2811 23.0805 20.574V21.4907H22.0497V20.574ZM15.6219 6.15995C16.5572 6.15995 17.3156 6.94063 17.3156 7.90342V11.3157C17.3156 12.2785 16.5572 13.0592 15.6219 13.0592C14.6866 13.0592 13.9282 12.2785 13.9282 11.3157V7.90342C13.9282 6.94063 14.6866 6.15995 15.6219 6.15995ZM15.6219 11.8877C15.8915 11.8877 16.1107 11.6621 16.1107 11.3846V7.83456C16.1107 7.55705 15.8915 7.33139 15.6219 7.33139C15.3523 7.33139 15.1331 7.55705 15.1331 7.83456V11.3846C15.1331 11.6621 15.3523 11.8877 15.6219 11.8877ZM18.3085 6.32463H19.4823V11.336C19.4823 11.4024 19.4876 11.4696 19.4989 11.5347C19.5343 11.7413 19.6826 11.8384 19.876 11.7695C20.1114 11.6857 20.2911 11.5177 20.4438 11.3198C20.4656 11.2916 20.4616 11.239 20.4616 11.1975V6.32421H21.6443V12.8957H20.4612L20.4628 12.1897C20.3318 12.3224 20.2202 12.4461 20.0977 12.5572C19.8801 12.7543 19.6339 12.9015 19.3457 12.9596C18.9033 13.0488 18.5265 12.9049 18.3855 12.4332C18.3383 12.276 18.3101 12.1067 18.3089 11.9429V6.32421L18.3085 6.32463ZM11.0655 4C11.0655 4 11.6034 6.35201 11.8601 7.4662H11.8605C12.1172 6.35201 12.6552 4 12.6552 4H14.0011C14.0011 4 12.9671 7.53091 12.5045 9.10514C12.488 9.16197 12.4803 9.22378 12.4803 9.28351V12.8941H11.2396V9.28351C11.24 9.22378 11.2323 9.16197 11.2158 9.10514C10.7536 7.53091 9.71954 4 9.71954 4H11.0655Z" fill="currentColor"/>
</svg>
