<?xml version="1.0" encoding="UTF-8"?>
<svg id="amazon-music" viewBox="0 0 64 64" xmlns="http://www.w3.org/2000/svg" xmlns:xlink="http://www.w3.org/1999/xlink">
  <defs>
    <clipPath id="clippath">
      <rect width="64" height="64" rx="11" ry="11" fill="none"/>
    </clipPath>
  </defs>
  <g clip-path="url(#clippath)">
    <rect width="64" height="64" rx="11" ry="11" fill="#25d1da"/>
    <path d="M18.85,31.08c.91,0,1.57.51,1.92,1.37h.07c.54-.92,1.2-1.37,2.03-1.37,1.37,0,2.2,1.15,2.2,3.01v4.52c0,.14-.1.24-.24.24h-1.46c-.14,0-.24-.1-.24-.24v-4.38c0-.89-.35-1.38-1-1.38-.71,0-1.09.58-1.09,1.64v4.12c0,.14-.1.24-.24.24h-1.46c-.14,0-.24-.1-.24-.24v-4.38c0-.89-.35-1.38-1-1.38-.71,0-1.09.58-1.09,1.64v4.12c0,.14-.1.24-.24.24h-1.46c-.14,0-.24-.1-.24-.24v-7.13c0-.14.1-.24.24-.24h1.21c.14,0,.23.09.26.24l.18.9h.07c.33-.83.96-1.3,1.8-1.3h0Z" fill="#14191a"/>
    <path d="M32.19,31.48v7.13c0,.14-.1.24-.24.24h-1.21c-.15,0-.22-.09-.26-.24l-.18-.9h-.07c-.33.85-.97,1.3-1.83,1.3-1.37,0-2.21-1.12-2.21-2.96v-4.57c0-.14.1-.24.24-.24h1.46c.14,0,.24.1.24.24v4.42c0,.87.35,1.34,1.01,1.34.73,0,1.12-.55,1.12-1.6v-4.17c0-.14.1-.24.24-.24h1.46c.14,0,.24.1.24.24h0Z" fill="#14191a"/>
    <path d="M36.96,33.4c-.09-.5-.48-.8-1-.8s-.87.27-.87.68c0,.38.27.62.84.76l1.07.27c1.33.33,1.89,1.09,1.89,2.22,0,1.44-1.23,2.49-2.86,2.49-1.49,0-2.74-.78-2.95-2.43-.02-.15.06-.25.2-.27l1.26-.24c.16-.03.26.04.29.24.13.8.57,1.19,1.2,1.19.58,0,.98-.3.98-.79s-.28-.73-.88-.88l-.8-.19c-1.61-.39-2.13-1.17-2.13-2.23,0-1.49,1.23-2.32,2.75-2.32s2.5.81,2.77,1.99c.04.16-.02.26-.18.29l-1.32.22c-.15.02-.26-.04-.27-.18h0Z" fill="#14191a"/>
    <path d="M40.77,28.37c.62,0,1.13.42,1.13,1.13s-.51,1.13-1.13,1.13-1.13-.44-1.13-1.13.51-1.13,1.13-1.13ZM39.8,38.61v-7.13c0-.14.1-.24.24-.24h1.46c.14,0,.24.1.24.24v7.13c0,.14-.1.24-.24.24h-1.46c-.14,0-.24-.1-.24-.24Z" fill="#14191a"/>
    <path d="M48.9,36.46c-.33,1.65-1.54,2.55-2.95,2.55-1.88,0-3.29-1.71-3.29-3.97s1.41-3.97,3.29-3.97c1.41,0,2.62.91,2.95,2.55.03.16-.05.26-.19.28l-1.33.24c-.15.03-.24-.04-.27-.19-.2-.92-.6-1.34-1.15-1.34-.84,0-1.28.86-1.28,2.42s.44,2.42,1.28,2.42c.55,0,.95-.41,1.15-1.34.04-.16.13-.22.27-.19l1.33.24c.15.03.22.13.19.28h0Z" fill="#14191a"/>
    <path d="M39.84,42.67c.09.21.36.21.77.13,1.1-.24,2.49-.26,2.73.07.23.34-.27,1.64-.87,2.59-.22.37-.31.59-.13.77.05.06.11.07.18.08.22,0,.5-.22.77-.47.58-.5,1.02-1.14,1.27-1.86.25-.69.37-1.67.11-2.05-.25-.36-1.21-.59-1.95-.58-.78,0-1.53.19-2.2.55-.42.23-.8.48-.68.78Z" fill="#14191a"/>
    <path d="M19.54,42.29c.06.19.21.43.43.7,2.81,3.46,7.33,4.98,11.69,4.98,3.81,0,7.5-1.15,9.84-3.18.4-.36.61-.64.61-.86,0-.09-.04-.16-.1-.24-.2-.21-.5-.06-.87.14-2.18,1.14-5.52,1.93-9.08,1.93-4.02,0-8.31-1-11.57-3.62-.31-.25-.65-.49-.88-.31-.08.06-.16.2-.07.46h0Z" fill="#14191a"/>
    <path d="M12,27.09c-1.31,0-2.19-.92-2.19-2.29,0-1.64,1.29-2.69,3.34-2.69.29,0,.55.02.76.06v-.19c0-.93-.34-1.38-1.04-1.38-.55,0-.91.3-1.08.89-.05.17-.14.25-.29.22l-1.27-.22c-.16-.03-.24-.16-.19-.33.34-1.29,1.4-2,2.96-2,1.86,0,2.85,1.02,2.85,2.93v4.6c0,.14-.1.24-.24.24h-1.21c-.14,0-.22-.09-.26-.24l-.18-.86h-.07c-.33.79-.99,1.26-1.89,1.26ZM12.74,25.64c.76,0,1.17-.69,1.17-1.97v-.48c-.16-.03-.32-.05-.48-.05-1,0-1.62.56-1.62,1.43,0,.65.37,1.06.93,1.06Z" fill="#14191a"/>
    <path d="M20.79,19.15c.91,0,1.57.51,1.92,1.37h.07c.54-.92,1.2-1.37,2.03-1.37,1.37,0,2.2,1.15,2.2,3.01v4.52c0,.14-.1.24-.24.24h-1.46c-.14,0-.24-.1-.24-.24v-4.38c0-.89-.35-1.38-1-1.38-.71,0-1.09.58-1.09,1.64v4.12c0,.14-.1.24-.24.24h-1.46c-.14,0-.24-.1-.24-.24v-4.38c0-.89-.35-1.38-1-1.38-.71,0-1.09.58-1.09,1.64v4.12c0,.14-.1.24-.24.24h-1.46c-.14,0-.24-.1-.24-.24v-7.13c0-.14.1-.24.24-.24h1.21c.14,0,.23.09.26.24l.18.9h.07c.33-.83.96-1.3,1.8-1.3h0Z" fill="#14191a"/>
    <path d="M30.04,27.09c-1.31,0-2.19-.92-2.19-2.29,0-1.64,1.29-2.69,3.34-2.69.29,0,.55.02.76.06v-.19c0-.93-.34-1.38-1.04-1.38-.55,0-.91.3-1.08.89-.05.17-.14.25-.29.22l-1.27-.22c-.16-.03-.24-.16-.19-.33.34-1.29,1.4-2,2.96-2,1.86,0,2.85,1.02,2.85,2.93v4.6c0,.14-.1.24-.24.24h-1.21c-.14,0-.22-.09-.26-.24l-.18-.86h-.07c-.33.79-.99,1.26-1.89,1.26ZM30.78,25.64c.76,0,1.17-.69,1.17-1.97v-.48c-.16-.03-.32-.05-.48-.05-1,0-1.62.56-1.62,1.43,0,.65.37,1.06.93,1.06Z" fill="#14191a"/>
    <path d="M34.71,25.59c0-.13.04-.24.11-.35l2.98-4.39h-2.78c-.14,0-.24-.1-.24-.24v-1.06c0-.14.1-.24.24-.24h4.81c.14,0,.24.1.24.24v1.1c0,.13-.03.23-.11.35l-3.01,4.39h3.03c.15,0,.24.1.24.24v1.06c0,.14-.1.24-.24.24h-5.03c-.14,0-.24-.1-.24-.24v-1.1Z" fill="#14191a"/>
    <path d="M40.58,23.12c0-2.27,1.42-3.97,3.29-3.97s3.31,1.7,3.31,3.97-1.43,3.97-3.31,3.97-3.29-1.7-3.29-3.97ZM43.87,25.53c.83,0,1.3-.86,1.3-2.41s-.47-2.42-1.3-2.42-1.28.86-1.28,2.42.46,2.41,1.28,2.41Z" fill="#14191a"/>
    <path d="M51.92,19.15c1.4,0,2.26,1.15,2.26,3.01v4.52c0,.14-.1.24-.24.24h-1.46c-.14,0-.24-.1-.24-.24v-4.38c0-.89-.38-1.38-1.05-1.38-.74,0-1.14.58-1.14,1.64v4.12c0,.14-.1.24-.24.24h-1.46c-.14,0-.24-.1-.24-.24v-7.13c0-.14.1-.24.24-.24h1.21c.14,0,.23.09.26.24l.18.9h.07c.33-.83.99-1.3,1.86-1.3h0Z" fill="#14191a"/>
  </g>
</svg>