<?xml version="1.0" encoding="UTF-8"?>
<svg id="logo" xmlns="http://www.w3.org/2000/svg" viewBox="0 0 48 29">
  <path d="M13.82,12c-.11-.35-.17-.83-.17-1.42h-.03v-5.16c0-1.75-.44-3.06-1.31-3.92-.88-.86-2.26-1.29-4.14-1.29-.87,0-1.69.1-2.46.3-.77.19-1.44.43-1.99.72-.22.11-.36.22-.44.33-.08.11-.11.3-.11.56v.78c0,.33.11.49.33.49.06,0,.14-.02.25-.05.11-.03.3-.1.55-.21.55-.22,1.12-.4,1.71-.54.58-.14,1.15-.21,1.71-.21,1.22,0,2.07.24,2.57.73.49.49.74,1.34.74,2.55v1.16c-.63-.14-1.23-.27-1.82-.35-.58-.08-1.14-.13-1.67-.13-1.63,0-2.91.41-3.87,1.24-.96.83-1.44,1.93-1.44,3.28,0,1.27.39,2.29,1.17,3.06.77.76,1.83,1.15,3.16,1.15,1.86,0,3.41-.73,4.64-2.2.17.37.33.67.49.94.16.25.35.51.57.75.16.14.32.22.47.22.13,0,.27-.05.41-.14l.99-.67c.21-.16.3-.32.3-.48,0-.11-.03-.24-.11-.37-.22-.41-.38-.8-.51-1.15ZM8.86,12.72c-.57.19-1.11.29-1.63.29-.73,0-1.28-.19-1.66-.59-.39-.38-.58-.94-.58-1.69,0-.8.25-1.4.77-1.83.52-.43,1.29-.64,2.35-.64.49,0,.98.03,1.48.1.51.06.99.16,1.45.27v.67c0,.54-.06,1-.16,1.39-.09.38-.28.72-.54,1.02-.43.48-.93.83-1.5,1.02ZM19.31,14.56c.13.11.32.16.6.16h1.36c.28,0,.51-.05.63-.16.13-.11.22-.32.3-.64l2.43-10.26,2.45,10.28c.06.32.17.53.3.64.13.11.33.16.63.16h1.36c.27,0,.47-.06.6-.16.13-.1.24-.3.33-.62l3.81-12.32c.06-.18.09-.3.11-.4,0-.01,0-.03,0-.04.01-.08.02-.15.02-.21,0-.27-.14-.4-.39-.4h-1.47c-.28,0-.49.06-.62.16-.11.1-.22.3-.32.62l-2.73,10.68-2.49-10.68c-.06-.3-.17-.53-.3-.62-.13-.11-.33-.16-.63-.16h-1.26c-.28,0-.51.06-.63.16-.13.1-.22.3-.3.62l-2.46,10.55-2.65-10.55c-.09-.3-.19-.53-.32-.62-.11-.11-.32-.16-.62-.16h-1.55c-.25,0-.38.14-.38.4,0,.11.05.32.14.64l3.71,12.32c.09.3.21.53.33.62ZM37.77,14.87c.79.19,1.61.29,2.43.29s1.55-.11,2.26-.33c.68-.21,1.26-.49,1.75-.89.49-.38.87-.86,1.15-1.4.27-.54.41-1.16.41-1.85,0-.83-.24-1.58-.73-2.23-.49-.65-1.31-1.16-2.45-1.53l-2.24-.72c-.84-.27-1.42-.57-1.74-.88-.32-.3-.47-.69-.47-1.13,0-.65.25-1.12.74-1.42.49-.3,1.2-.45,2.1-.45,1.12,0,2.13.21,3.03.62.27.13.47.19.6.19.24,0,.36-.18.36-.51v-.75c0-.22-.05-.4-.14-.53-.09-.14-.25-.27-.47-.4-.16-.1-.38-.19-.66-.29s-.58-.18-.9-.25h0c-.33-.06-.66-.13-1.03-.18-.35-.05-.71-.06-1.06-.06-.69,0-1.36.08-1.99.27-.63.19-1.17.46-1.64.83-.47.35-.85.8-1.14,1.31-.28.51-.43,1.1-.43,1.77,0,.83.27,1.61.79,2.31.52.72,1.37,1.26,2.53,1.63l2.29.72c.77.25,1.31.53,1.59.83.28.3.43.67.43,1.12,0,.65-.28,1.16-.82,1.51-.54.35-1.31.53-2.31.53-.63,0-1.25-.06-1.88-.19-.62-.13-1.2-.32-1.74-.56-.06-.02-.11-.05-.16-.07-.09-.04-.17-.07-.23-.09-.09-.03-.19-.05-.28-.05-.24,0-.36.16-.36.49v.81c0,.14.03.3.09.45.06.14.24.3.49.45.41.24,1.03.45,1.82.64ZM45.35,20.41c-.66-.86-4.39-.41-6.08-.21-.51.06-.58-.38-.13-.72,2.97-2.1,7.85-1.5,8.42-.8.57.72-.16,5.64-2.94,8-.43.37-.84.18-.65-.3.63-1.58,2.04-5.13,1.37-5.98ZM43.18,22.9c-5.19,3.87-12.74,5.93-19.23,5.93-9.09,0-17.29-3.39-23.48-9.03-.49-.45-.05-1.05.54-.7,6.69,3.92,14.95,6.29,23.49,6.29,5.76,0,12.09-1.21,17.92-3.7.87-.4,1.61.57.76,1.21Z" fill="currentColor" fill-rule="evenodd"/>
</svg>