<?xml version="1.0" encoding="UTF-8"?>
<svg id="linkedin" viewBox="0 0 32 32" xmlns="http://www.w3.org/2000/svg">
  <path fill-rule="evenodd" clip-rule="evenodd" d="M28 28H23.0688V19.601C23.0688 17.2982 22.1938 16.0113 20.3711 16.0113C18.3883 16.0113 17.3523 17.3505 17.3523 19.601V28H12.6V12H17.3523V14.1552C17.3523 14.1552 18.7813 11.5112 22.1766 11.5112C25.5703 11.5112 28 13.5836 28 17.8698V28ZM6.93047 9.90493C5.31172 9.90493 4 8.58292 4 6.95246C4 5.32201 5.31172 4 6.93047 4C8.54922 4 9.86016 5.32201 9.86016 6.95246C9.86016 8.58292 8.54922 9.90493 6.93047 9.90493ZM4.47656 28H9.43203V12H4.47656V28Z" fill="currentColor"/>
</svg>
